<svg xmlns="http://www.w3.org/2000/svg" viewBox="0 0 48 48"><defs><style>.cls-1{fill:#6fabe6;}.cls-2{fill:#82bcf4;}.cls-3{fill:#db5669;}.cls-4{fill:#edebf2;}.cls-5{fill:#f26674;}</style></defs><title>QnA Bubble Word</title><g id="QnA_Bubble_Word" data-name="QnA Bubble Word"><path class="cls-1" d="M47,13V33l-5-3H26c-4.58-17.3-4-14.16-4-17a3,3,0,0,1,2-2.82c.67-.26-.71-.18,20-.18A3,3,0,0,1,47,13Z"/><path class="cls-2" d="M47,13V28H32a8,8,0,0,1-8-8V10.18A2.77,2.77,0,0,1,25,10H44A3,3,0,0,1,47,13Z"/><path class="cls-3" d="M26,18c0,15.18.07,14.34-.18,15A3,3,0,0,1,23,35H6L1,38V18a3,3,0,0,1,3-3H23A3,3,0,0,1,26,18Z"/><path class="cls-4" d="M39.93,24.63C35.59,13.79,35.93,14,35,14s-.54-.34-4.93,10.63a1,1,0,0,0,1.86.74l1-2.37h4.24c.88,2.2,1,3,1.88,3A1,1,0,0,0,39.93,24.63ZM33.68,21,35,17.69,36.32,21Z"/><path class="cls-5" d="M26,18c0,15.18.07,14.34-.18,15H11a8,8,0,0,1-8-8V15.18A2.77,2.77,0,0,1,4,15H23A3,3,0,0,1,26,18Z"/><path class="cls-4" d="M19,24A5,5,0,0,0,9,24v2a5,5,0,0,0,7.75,4.17l.54.54a1,1,0,0,0,1.42-1.42l-.54-.54C19.17,27.24,19,26,19,24Zm-3.29,2.29a1,1,0,0,0-1.42,1.42l1,1A3,3,0,0,1,11,26V24a3,3,0,0,1,6,0c0,1.89.09,2.46-.3,3.29Z"/></g></svg>